<svg width="800" height="400" viewBox="0 0 800 400" xmlns="http://www.w3.org/2000/svg"><mask id="satori_om-id"><rect x="0" y="0" width="800" height="400" fill="#fff"/></mask><rect x="0" y="0" width="800" height="400" fill="#000"/><mask id="satori_om-id-0"><rect x="64" y="0" width="1" height="400" fill="#fff"/></mask><rect x="64" y="0" width="1" height="400" fill="rgba(255, 255, 255, 0.4)"/><mask id="satori_om-id-1"><rect x="735" y="0" width="1" height="400" fill="#fff"/></mask><rect x="735" y="0" width="1" height="400" fill="rgba(255, 255, 255, 0.4)"/><mask id="satori_om-id-2"><rect x="0" y="64" width="800" height="1" fill="#fff"/></mask><rect x="0" y="64" width="800" height="1" fill="rgba(255, 255, 255, 0.4)"/><mask id="satori_om-id-3"><rect x="0" y="335" width="800" height="1" fill="#fff"/></mask><rect x="0" y="335" width="800" height="1" fill="rgba(255, 255, 255, 0.4)"/><mask id="satori_om-id-4"><rect x="128" y="128" width="544" height="144" fill="#fff"/></mask><mask id="satori_om-id-4-0"><rect x="128" y="149" width="544" height="35" fill="#fff"/></mask><g  ><path fill="#fff" d="M147.4 161.4L142.6 161.4Q142.5 160.0 141.5 159.3Q140.4 158.5 138.7 158.5L138.7 158.5Q137.5 158.5 136.6 158.9Q135.8 159.2 135.4 159.8Q134.9 160.4 134.9 161.1L134.9 161.1Q134.9 161.8 135.2 162.2Q135.5 162.7 136 163.0Q136.5 163.4 137.2 163.6Q137.9 163.8 138.6 164.0L138.6 164.0L140.7 164.5Q142.2 164.9 143.5 165.4Q144.8 166.0 145.7 166.8Q146.6 167.6 147.2 168.8Q147.7 169.9 147.7 171.4L147.7 171.4Q147.7 173.5 146.6 175.1Q145.5 176.6 143.5 177.5Q141.5 178.3 138.6 178.3L138.6 178.3Q135.8 178.3 133.7 177.5Q131.7 176.6 130.5 174.9Q129.3 173.2 129.3 170.7L129.3 170.7L134.0 170.7Q134.1 171.9 134.7 172.6Q135.3 173.4 136.3 173.8Q137.3 174.2 138.6 174.2L138.6 174.2Q139.8 174.2 140.8 173.8Q141.7 173.5 142.2 172.8Q142.7 172.2 142.7 171.3L142.7 171.3Q142.7 170.6 142.3 170.0Q141.8 169.5 140.9 169.1Q140.0 168.7 138.8 168.4L138.8 168.4L136.2 167.8Q133.3 167.1 131.6 165.6Q129.9 164.0 129.9 161.5L129.9 161.5Q129.9 159.3 131.0 157.8Q132.2 156.2 134.2 155.3Q136.2 154.4 138.7 154.4L138.7 154.4Q141.3 154.4 143.2 155.3Q145.2 156.2 146.3 157.8Q147.3 159.3 147.4 161.4L147.4 161.4ZM158.1 169.8L149.6 154.7L155.1 154.7L160.4 164.8L160.7 164.8L166.0 154.7L171.5 154.7L163.0 169.8L163.0 178L158.1 178L158.1 169.8ZM184.2 178L179.4 178L172.7 154.7L178.1 154.7L182.0 170.9L182.2 170.9L186.4 154.7L191.0 154.7L195.3 170.9L195.5 170.9L199.3 154.7L204.7 154.7L198.0 178L193.2 178L188.8 162.8L188.6 162.8L184.2 178ZM214.4 169.8L205.9 154.7L211.5 154.7L216.8 164.8L217.0 164.8L222.3 154.7L227.8 154.7L219.3 169.8L219.3 178L214.4 178L214.4 169.8ZM235.4 178L230.5 178L230.5 154.7L235.4 154.7L235.4 165.0L235.7 165.0L244.1 154.7L250.0 154.7L241.4 165.1L250.1 178L244.2 178L237.8 168.4L235.4 171.4L235.4 178ZM268.3 178L252.6 178L252.6 154.7L268.2 154.7L268.2 158.8L257.5 158.8L257.5 164.3L267.4 164.3L267.4 168.4L257.5 168.4L257.5 173.9L268.3 173.9L268.3 178Z "/></g><mask id="satori_om-id-4-1"><rect x="128" y="221" width="544" height="35" fill="#fff"/></mask><g  ><path fill="rgba(255, 255, 255, 0.8)" d="M141.7 234.9L139.7 234.9Q139.5 233.6 138.4 232.9Q137.3 232.2 135.7 232.2L135.7 232.2Q134.6 232.2 133.7 232.6Q132.8 232.9 132.4 233.6Q131.9 234.2 131.9 235.1L131.9 235.1Q131.9 235.8 132.2 236.3Q132.6 236.8 133.1 237.1Q133.6 237.4 134.2 237.6Q134.8 237.8 135.3 238.0L135.3 238.0L137.0 238.5Q137.7 238.6 138.6 238.9Q139.4 239.3 140.2 239.8Q140.9 240.3 141.4 241.2Q141.9 242.0 141.9 243.3L141.9 243.3Q141.9 244.7 141.2 245.8Q140.5 247.0 139.1 247.6Q137.6 248.3 135.6 248.3L135.6 248.3Q133.8 248.3 132.4 247.7Q131.0 247.1 130.2 246.0Q129.5 244.9 129.4 243.5L129.4 243.5L131.5 243.5Q131.6 244.5 132.2 245.1Q132.8 245.8 133.7 246.1Q134.6 246.4 135.6 246.4L135.6 246.4Q136.8 246.4 137.8 246.0Q138.8 245.6 139.3 244.9Q139.9 244.2 139.9 243.2L139.9 243.2Q139.9 242.4 139.4 241.8Q138.9 241.3 138.1 240.9Q137.3 240.6 136.4 240.3L136.4 240.3L134.3 239.7Q132.2 239.1 131.0 238.0Q129.8 236.9 129.8 235.2L129.8 235.2Q129.8 233.7 130.6 232.6Q131.4 231.5 132.8 230.9Q134.1 230.3 135.8 230.3L135.8 230.3Q137.5 230.3 138.8 230.9Q140.1 231.5 140.9 232.5Q141.7 233.6 141.7 234.9L141.7 234.9ZM147.2 248L145.1 248L145.1 234.9L147.2 234.9L147.2 248ZM146.2 232.7L146.2 232.7Q145.6 232.7 145.2 232.3Q144.7 231.9 144.7 231.4L144.7 231.4Q144.7 230.8 145.2 230.4Q145.6 230 146.2 230L146.2 230Q146.8 230 147.2 230.4Q147.6 230.8 147.6 231.4L147.6 231.4Q147.6 231.9 147.2 232.3Q146.8 232.7 146.2 232.7ZM149.8 234.9L156.5 234.9L156.5 236.6L149.8 236.6L149.8 234.9ZM151.7 244.8L151.7 231.8L153.7 231.8L153.7 244.3Q153.7 245.1 154.0 245.5Q154.2 245.9 154.6 246.1Q155.0 246.2 155.5 246.2L155.5 246.2Q155.8 246.2 156.0 246.2Q156.2 246.2 156.4 246.1L156.4 246.1L156.8 247.9Q156.6 248.0 156.2 248.1Q155.8 248.2 155.3 248.2L155.3 248.2Q154.4 248.2 153.6 247.8Q152.8 247.4 152.3 246.7Q151.7 245.9 151.7 244.8L151.7 244.8ZM164.9 248.3L164.9 248.3Q163.0 248.3 161.7 247.4Q160.3 246.6 159.6 245.1Q158.8 243.6 158.8 241.6L158.8 241.6Q158.8 239.5 159.6 238.0Q160.3 236.5 161.6 235.6Q162.9 234.7 164.7 234.7L164.7 234.7Q165.7 234.7 166.7 235.1Q167.7 235.4 168.6 236.2Q169.4 236.9 169.9 238.2Q170.3 239.5 170.3 241.3L170.3 241.3L170.3 242.1L160.3 242.1L160.3 240.4L168.3 240.4Q168.3 239.3 167.9 238.4Q167.4 237.6 166.6 237.0Q165.8 236.5 164.7 236.5L164.7 236.5Q163.5 236.5 162.6 237.1Q161.8 237.7 161.3 238.7Q160.8 239.6 160.8 240.7L160.8 240.7L160.8 241.9Q160.8 243.3 161.3 244.4Q161.9 245.4 162.8 245.9Q163.7 246.5 164.9 246.5L164.9 246.5Q165.7 246.5 166.4 246.2Q167 246.0 167.5 245.6Q167.9 245.1 168.2 244.4L168.2 244.4L170.1 245.0Q169.8 246.0 169.1 246.7Q168.4 247.4 167.3 247.9Q166.3 248.3 164.9 248.3ZM182.7 237.8L182.7 237.8L180.9 238.4Q180.7 237.9 180.4 237.5Q180.0 237.0 179.5 236.8Q178.9 236.5 178.0 236.5L178.0 236.5Q176.8 236.5 176.0 237.0Q175.3 237.6 175.3 238.4L175.3 238.4Q175.3 239.2 175.8 239.6Q176.3 240.0 177.5 240.3L177.5 240.3L179.4 240.8Q181.2 241.2 182.1 242.1Q182.9 243.0 182.9 244.4L182.9 244.4Q182.9 245.5 182.3 246.4Q181.6 247.3 180.5 247.8Q179.3 248.3 177.8 248.3L177.8 248.3Q175.8 248.3 174.5 247.4Q173.2 246.5 172.8 244.9L172.8 244.9L174.7 244.4Q175.0 245.4 175.8 246.0Q176.5 246.5 177.8 246.5L177.8 246.5Q179.2 246.5 180.0 245.9Q180.8 245.3 180.8 244.5L180.8 244.5Q180.8 243.8 180.4 243.3Q179.9 242.8 178.9 242.6L178.9 242.6L176.7 242.1Q174.9 241.7 174.1 240.8Q173.2 239.9 173.2 238.5L173.2 238.5Q173.2 237.4 173.9 236.6Q174.5 235.7 175.6 235.2Q176.7 234.7 178.0 234.7L178.0 234.7Q180.0 234.7 181.1 235.6Q182.2 236.4 182.7 237.8Z M197.9 240.8L191.6 230.5L194.0 230.5L198.9 238.7L199.1 238.7L203.9 230.5L206.3 230.5L200.0 240.8L200.0 248L197.9 248L197.9 240.8ZM212.3 248.3L212.3 248.3Q210.5 248.3 209.2 247.4Q207.8 246.6 207.1 245.1Q206.3 243.6 206.3 241.5L206.3 241.5Q206.3 239.5 207.1 238.0Q207.8 236.4 209.2 235.6Q210.5 234.7 212.3 234.7L212.3 234.7Q214.0 234.7 215.4 235.6Q216.7 236.4 217.5 238.0Q218.2 239.5 218.2 241.5L218.2 241.5Q218.2 243.6 217.5 245.1Q216.7 246.6 215.4 247.4Q214.0 248.3 212.3 248.3ZM212.3 246.5L212.3 246.5Q213.6 246.5 214.5 245.8Q215.4 245.1 215.8 244.0Q216.2 242.8 216.2 241.5L216.2 241.5Q216.2 240.2 215.8 239.1Q215.4 237.9 214.5 237.2Q213.6 236.5 212.3 236.5L212.3 236.5Q210.9 236.5 210.1 237.2Q209.2 237.9 208.8 239.1Q208.4 240.2 208.4 241.5L208.4 241.5Q208.4 242.8 208.8 244.0Q209.2 245.1 210.1 245.8Q210.9 246.5 212.3 246.5ZM229.5 242.6L229.5 242.6L229.5 234.9L231.5 234.9L231.5 248L229.5 248L229.5 245.8L229.4 245.8Q228.9 246.8 228.0 247.5Q227.0 248.2 225.5 248.2L225.5 248.2Q224.3 248.2 223.3 247.6Q222.4 247.1 221.8 246.0Q221.3 244.9 221.3 243.2L221.3 243.2L221.3 234.9L223.3 234.9L223.3 243.1Q223.3 244.5 224.1 245.4Q224.9 246.2 226.1 246.2L226.1 246.2Q226.9 246.2 227.7 245.8Q228.5 245.5 229.0 244.7Q229.5 243.9 229.5 242.6Z M249.4 248L247.3 248L242.5 230.5L244.6 230.5L248.3 244.8L248.4 244.8L252.2 230.5L254.5 230.5L258.3 244.8L258.4 244.8L262.1 230.5L264.2 230.5L259.5 248L257.3 248L253.4 234.1L253.3 234.1L249.4 248ZM268.6 248L266.6 248L266.6 234.9L268.6 234.9L268.6 248ZM267.6 232.7L267.6 232.7Q267.0 232.7 266.6 232.3Q266.2 231.9 266.2 231.4L266.2 231.4Q266.2 230.8 266.6 230.4Q267.0 230 267.6 230L267.6 230Q268.2 230 268.6 230.4Q269.0 230.8 269.0 231.4L269.0 231.4Q269.0 231.9 268.6 232.3Q268.2 232.7 267.6 232.7ZM281.5 237.8L281.5 237.8L279.7 238.4Q279.6 237.9 279.2 237.5Q278.9 237.0 278.3 236.8Q277.8 236.5 276.9 236.5L276.9 236.5Q275.7 236.5 274.9 237.0Q274.1 237.6 274.1 238.4L274.1 238.4Q274.1 239.2 274.7 239.6Q275.2 240.0 276.4 240.3L276.4 240.3L278.3 240.8Q280.1 241.2 280.9 242.1Q281.8 243.0 281.8 244.4L281.8 244.4Q281.8 245.5 281.1 246.4Q280.5 247.3 279.3 247.8Q278.2 248.3 276.7 248.3L276.7 248.3Q274.7 248.3 273.4 247.4Q272.0 246.5 271.7 244.9L271.7 244.9L273.6 244.4Q273.9 245.4 274.6 246.0Q275.4 246.5 276.6 246.5L276.6 246.5Q278.0 246.5 278.9 245.9Q279.7 245.3 279.7 244.5L279.7 244.5Q279.7 243.8 279.2 243.3Q278.8 242.8 277.8 242.6L277.8 242.6L275.6 242.1Q273.8 241.7 272.9 240.8Q272.1 239.9 272.1 238.5L272.1 238.5Q272.1 237.4 272.7 236.6Q273.4 235.7 274.4 235.2Q275.5 234.7 276.9 234.7L276.9 234.7Q278.9 234.7 280.0 235.6Q281.1 236.4 281.5 237.8ZM286.8 240.1L286.8 240.1L286.8 248L284.8 248L284.8 230.5L286.8 230.5L286.8 237.0L287 237.0Q287.5 235.9 288.4 235.3Q289.3 234.7 290.9 234.7L290.9 234.7Q292.2 234.7 293.2 235.3Q294.2 235.8 294.8 236.9Q295.3 238.0 295.3 239.7L295.3 239.7L295.3 248L293.3 248L293.3 239.8Q293.3 238.3 292.5 237.4Q291.7 236.5 290.3 236.5L290.3 236.5Q289.3 236.5 288.5 237.0Q287.7 237.4 287.3 238.2Q286.8 239.0 286.8 240.1Z M310.8 240.8L304.5 230.5L306.9 230.5L311.8 238.7L312.0 238.7L316.8 230.5L319.2 230.5L312.9 240.8L312.9 248L310.8 248L310.8 240.8ZM325.2 248.3L325.2 248.3Q323.4 248.3 322.1 247.4Q320.7 246.6 320.0 245.1Q319.3 243.6 319.3 241.5L319.3 241.5Q319.3 239.5 320.0 238.0Q320.7 236.4 322.1 235.6Q323.4 234.7 325.2 234.7L325.2 234.7Q327.0 234.7 328.3 235.6Q329.6 236.4 330.4 238.0Q331.1 239.5 331.1 241.5L331.1 241.5Q331.1 243.6 330.4 245.1Q329.6 246.6 328.3 247.4Q327.0 248.3 325.2 248.3ZM325.2 246.5L325.2 246.5Q326.5 246.5 327.4 245.8Q328.3 245.1 328.7 244.0Q329.1 242.8 329.1 241.5L329.1 241.5Q329.1 240.2 328.7 239.1Q328.3 237.9 327.4 237.2Q326.5 236.5 325.2 236.5L325.2 236.5Q323.8 236.5 323.0 237.2Q322.1 237.9 321.7 239.1Q321.3 240.2 321.3 241.5L321.3 241.5Q321.3 242.8 321.7 244.0Q322.1 245.1 323.0 245.8Q323.8 246.5 325.2 246.5ZM342.4 242.6L342.4 242.6L342.4 234.9L344.4 234.9L344.4 248L342.4 248L342.4 245.8L342.3 245.8Q341.8 246.8 340.9 247.5Q339.9 248.2 338.4 248.2L338.4 248.2Q337.2 248.2 336.2 247.6Q335.3 247.1 334.7 246.0Q334.2 244.9 334.2 243.2L334.2 243.2L334.2 234.9L336.2 234.9L336.2 243.1Q336.2 244.5 337.0 245.4Q337.8 246.2 339.1 246.2L339.1 246.2Q339.8 246.2 340.6 245.8Q341.4 245.5 341.9 244.7Q342.4 243.9 342.4 242.6Z M359.1 248L357.0 248L357.0 230.5L359.1 230.5L359.1 239.2L359.3 239.2L367.1 230.5L369.9 230.5L362.6 238.4L369.9 248L367.4 248L361.3 239.9L359.1 242.3L359.1 248ZM374.4 240.1L374.4 240.1L374.4 248L372.4 248L372.4 234.9L374.3 234.9L374.3 237.0L374.5 237.0Q374.9 236.0 375.9 235.3Q376.8 234.7 378.3 234.7L378.3 234.7Q379.6 234.7 380.6 235.3Q381.6 235.8 382.2 236.9Q382.7 238.0 382.7 239.7L382.7 239.7L382.7 248L380.7 248L380.7 239.8Q380.7 238.3 379.9 237.4Q379.1 236.5 377.7 236.5L377.7 236.5Q376.8 236.5 376.0 237.0Q375.2 237.4 374.8 238.2Q374.4 239.0 374.4 240.1ZM391.9 248.3L391.9 248.3Q390.0 248.3 388.6 247.4Q387.3 246.6 386.5 245.1Q385.8 243.6 385.8 241.6L385.8 241.6Q385.8 239.5 386.5 238.0Q387.3 236.5 388.6 235.6Q389.9 234.7 391.7 234.7L391.7 234.7Q392.7 234.7 393.7 235.1Q394.7 235.4 395.5 236.2Q396.3 236.9 396.8 238.2Q397.3 239.5 397.3 241.3L397.3 241.3L397.3 242.1L387.2 242.1L387.2 240.4L395.3 240.4Q395.3 239.3 394.8 238.4Q394.4 237.6 393.6 237.0Q392.8 236.5 391.7 236.5L391.7 236.5Q390.5 236.5 389.6 237.1Q388.7 237.7 388.3 238.7Q387.8 239.6 387.8 240.7L387.8 240.7L387.8 241.9Q387.8 243.3 388.3 244.4Q388.8 245.4 389.8 245.9Q390.7 246.5 391.9 246.5L391.9 246.5Q392.7 246.5 393.3 246.2Q394.0 246.0 394.4 245.6Q394.9 245.1 395.2 244.4L395.2 244.4L397.1 245.0Q396.8 246.0 396.1 246.7Q395.4 247.4 394.3 247.9Q393.2 248.3 391.9 248.3ZM405.3 248L403.4 248L399.4 234.9L401.5 234.9L404.3 244.9L404.4 244.9L407.2 234.9L409.4 234.9L412.1 244.9L412.3 244.9L415.1 234.9L417.2 234.9L413.2 248L411.3 248L408.4 237.9L408.2 237.9L405.3 248Z M437.6 248L426.9 248L426.9 230.5L437.4 230.5L437.4 232.4L429.0 232.4L429.0 238.3L436.9 238.3L436.9 240.2L429.0 240.2L429.0 246.1L437.6 246.1L437.6 248ZM444.8 248.3L444.8 248.3Q443.6 248.3 442.6 247.8Q441.6 247.4 441.0 246.5Q440.4 245.6 440.4 244.3L440.4 244.3Q440.4 243.2 440.8 242.5Q441.3 241.8 442.0 241.4Q442.7 241.0 443.6 240.8Q444.5 240.6 445.5 240.4L445.5 240.4Q446.6 240.3 447.4 240.2Q448.1 240.1 448.5 239.9Q448.8 239.7 448.8 239.2L448.8 239.2L448.8 239.2Q448.8 237.9 448.1 237.2Q447.5 236.5 446.1 236.5L446.1 236.5Q444.6 236.5 443.8 237.1Q443.0 237.8 442.7 238.5L442.7 238.5L440.8 237.8Q441.3 236.6 442.1 235.9Q443.0 235.3 444.0 235.0Q445.0 234.7 446.0 234.7L446.0 234.7Q446.6 234.7 447.5 234.9Q448.3 235.0 449.0 235.5Q449.8 236.0 450.3 236.9Q450.8 237.8 450.8 239.4L450.8 239.4L450.8 248L448.8 248L448.8 246.2L448.7 246.2Q448.5 246.7 448.0 247.1Q447.6 247.6 446.8 248.0Q446.0 248.3 444.8 248.3ZM445.1 246.5L445.1 246.5Q446.3 246.5 447.2 246.0Q448.0 245.6 448.4 244.8Q448.8 244.1 448.8 243.3L448.8 243.3L448.8 241.4Q448.7 241.6 448.3 241.7Q447.8 241.8 447.3 241.9Q446.7 242 446.2 242.1Q445.7 242.1 445.4 242.2L445.4 242.2Q444.6 242.3 443.9 242.5Q443.2 242.7 442.8 243.2Q442.4 243.6 442.4 244.4L442.4 244.4Q442.4 245.4 443.2 246.0Q443.9 246.5 445.1 246.5ZM456.5 248L454.5 248L454.5 234.9L456.5 234.9L456.5 236.9L456.6 236.9Q457.0 235.9 457.9 235.3Q458.8 234.7 460.0 234.7L460.0 234.7Q460.2 234.7 460.6 234.7Q460.9 234.7 461.1 234.7L461.1 234.7L461.1 236.8Q461.0 236.8 460.6 236.7Q460.2 236.6 459.8 236.6L459.8 236.6Q458.9 236.6 458.1 237.0Q457.4 237.4 457.0 238.1Q456.5 238.8 456.5 239.7L456.5 239.7L456.5 248ZM463.5 230.5L465.5 230.5L465.5 248L463.5 248L463.5 230.5ZM471.2 248L469.1 248L469.1 234.9L471.2 234.9L471.2 248ZM470.2 232.7L470.2 232.7Q469.6 232.7 469.2 232.3Q468.7 231.9 468.7 231.4L468.7 231.4Q468.7 230.8 469.2 230.4Q469.6 230 470.2 230L470.2 230Q470.8 230 471.2 230.4Q471.6 230.8 471.6 231.4L471.6 231.4Q471.6 231.9 471.2 232.3Q470.8 232.7 470.2 232.7ZM480.3 248.3L480.3 248.3Q478.4 248.3 477.1 247.4Q475.7 246.6 475.0 245.1Q474.2 243.6 474.2 241.6L474.2 241.6Q474.2 239.5 475.0 238.0Q475.7 236.5 477.0 235.6Q478.4 234.7 480.1 234.7L480.1 234.7Q481.1 234.7 482.1 235.1Q483.1 235.4 484.0 236.2Q484.8 236.9 485.3 238.2Q485.8 239.5 485.8 241.3L485.8 241.3L485.8 242.1L475.7 242.1L475.7 240.4L483.7 240.4Q483.7 239.3 483.3 238.4Q482.8 237.6 482.0 237.0Q481.2 236.5 480.1 236.5L480.1 236.5Q478.9 236.5 478.0 237.1Q477.2 237.7 476.7 238.7Q476.2 239.6 476.2 240.7L476.2 240.7L476.2 241.9Q476.2 243.3 476.8 244.4Q477.3 245.4 478.2 245.9Q479.1 246.5 480.3 246.5L480.3 246.5Q481.1 246.5 481.8 246.2Q482.4 246.0 482.9 245.6Q483.3 245.1 483.6 244.4L483.6 244.4L485.5 245.0Q485.2 246.0 484.5 246.7Q483.8 247.4 482.7 247.9Q481.7 248.3 480.3 248.3ZM490.8 248L488.8 248L488.8 234.9L490.8 234.9L490.8 236.9L490.9 236.9Q491.3 235.9 492.2 235.3Q493.1 234.7 494.3 234.7L494.3 234.7Q494.5 234.7 494.9 234.7Q495.2 234.7 495.4 234.7L495.4 234.7L495.4 236.8Q495.3 236.8 494.9 236.7Q494.5 236.6 494.1 236.6L494.1 236.6Q493.2 236.6 492.4 237.0Q491.7 237.4 491.3 238.1Q490.8 238.8 490.8 239.7L490.8 239.7L490.8 248ZM498.1 230.5L500.4 230.5L500.2 243.1L498.3 243.1L498.1 230.5ZM499.3 248.1L499.3 248.1Q498.6 248.1 498.2 247.7Q497.7 247.2 497.7 246.6L497.7 246.6Q497.7 246.0 498.2 245.5Q498.6 245.1 499.3 245.1L499.3 245.1Q499.9 245.1 500.3 245.5Q500.8 246.0 500.8 246.6L500.8 246.6Q500.8 247.0 500.6 247.4Q500.4 247.7 500.0 247.9Q499.7 248.1 499.3 248.1Z "/></g></svg>