<svg width="800" height="400" viewBox="0 0 800 400" xmlns="http://www.w3.org/2000/svg"><mask id="satori_om-id"><rect x="0" y="0" width="800" height="400" fill="#fff"/></mask><rect x="0" y="0" width="800" height="400" fill="#fff"/><clipPath id="satori_cp-id-0"><rect x="300" y="76" width="200" height="200"/></clipPath><mask id="satori_om-id-0"><rect x="300" y="76" width="200" height="200" fill="#fff"/></mask><image x="300" y="76" width="200" height="200" href="data:image/svg+xml;utf8,%3Csvg  fill=%22%23000%22 xmlns=%22http://www.w3.org/2000/svg%22 width=%22NaN%22 height=%22null%22 viewBox=%220 0 500 500%22%3E%3Cpath d=%22m385.42 326.45c7.5002 11.979 14.799 23.656 22.202 35.5-8.1935 5.0413-16.606 4.262-24.579 4.2893-37.649 0.12912-75.301-0.41928-112.95-0.33032-23.302 0.055023-46.602 0.98456-69.905 1.2102-18.151 0.17575-36.306-0.15396-54.46-0.21256-14.984-0.04837-29.969 0.065522-44.951-0.081878-6.7307-0.066223-7.8922-1.4271-4.9177-7.4055 6.1438-12.349 12.832-24.436 19.572-36.476 6.175-11.03 12.936-21.733 19.035-32.803 7.134-12.949 13.653-26.236 20.755-39.204 13.59-24.818 27.295-49.574 41.159-74.24 10.441-18.576 21.402-36.862 31.75-55.488 6.0504-10.891 11.318-22.216 17.019-33.303 1.1251-2.1883 2.622-4.1855 4.8904-7.7543 5.7382 9.557 11.258 17.968 16.005 26.795 18.521 34.436 36.581 69.122 55.249 103.48 10.482 19.291 22.071 37.979 32.702 57.193 10.704 19.346 20.84 39.008 31.426 58.833m-147.65-196.09c-6.8811 12.731-13.765 25.46-20.643 38.193-26.635 49.31-53.288 98.611-79.886 147.94-5.3618 9.9441-10.83 19.852-15.653 30.058-3.1228 6.6081-2.2816 7.4296 4.9122 7.4871 25.804 0.20612 51.609 0.60953 77.412 0.4834 25.964-0.12695 51.924-1.0068 77.888-1.1692 26.313-0.16449 52.629 0.23712 78.943 0.1875 7.2331-0.013611 14.465-0.75507 22.485-1.2069-1.2543-2.8544-1.9446-4.8765-2.9768-6.7055-12.26-21.723-24.719-43.336-36.793-65.161-4.5791-8.277-7.9431-17.224-12.489-25.522-11.912-21.741-24.535-43.098-36.183-64.977-10.707-20.111-20.396-40.762-30.776-61.05-3.9071-7.6365-8.4975-14.923-12.776-22.37-0.55866 0.038421-1.1173 0.076835-1.6759 0.11526-3.8183 7.6772-7.6366 15.354-11.787 23.696z%22%3E%3C/path%3E%3Cpath d=%22m225.1 291.91c-1.6356-3.1e-5 -2.8994 0.28671-3.9451-0.068634-1.493-0.50739-3.5675-1.1808-4.0422-2.3378-0.60886-1.484-0.52339-3.9944 0.38878-5.2343 4.2394-5.7626 9.1434-11.044 13.267-16.881 3.1425-4.4477 6.4169-6.9789 12.279-4.0055v21.656c2.279 0.15097 4.193 0.27777 6.0605 0.40149 1.3418 5.7549 1.0544 6.1013-5.3554 6.7429-3.8485 4.8808 4.2317 4.6031 3.5826 8.5007h-20.87c0.3517-4.5121 8.8479-2.2303 6.2637-8.7733h-7.6303m3.7686-6.0166c1.3887-0.10904 2.7774-0.21808 3.7849-0.29718v-11.418c-2.9601 4.3854-5.2821 7.8253-7.9156 11.727 1.6734 0 2.4826 0 4.1308-0.012238z%22%3E%3C/path%3E%3Cpath d=%22m279.98 285.16c2.0652 0.14368 3.6948 0.14368 5.3178 0.14368 1.7896 5.8358-1.0354 7.2611-5.957 6.5522v4.3891c1.4268 1.0446 2.9593 2.1665 4.4917 3.2884-0.23108 0.36005-0.46219 0.72012-0.69327 1.0802h-20.718c0.54193-4.3939 8.8558-2.2182 6.2835-8.7031-3.8832 0-7.8742 0.17319-11.835-0.096772-1.3314-0.090728-3.3237-1.0383-3.7032-2.0744-0.57408-1.5672-0.6989-4.0794 0.20068-5.2777 5.2959-7.0544 10.67-14.098 16.655-20.555 1.615-1.7427 5.4395-1.4379 9.5222-2.3605 0 8.6894 0 16.08 0.43567 23.615m-10.962-2.7256v-7.1547c-0.32431-0.064179-0.64862-0.12836-0.97296-0.19254-2.3341 3.451-4.6682 6.902-7.0024 10.353 2.9108-0.79971 6.9207 3.0047 7.9753-3.0058z%22%3E%3C/path%3E%3C/svg%3E" preserveAspectRatio="none" clip-path="url(#satori_cp-id-0)" mask="url(#satori_om-id-0)"/><mask id="satori_om-id-0-0"><rect x="300" y="76" width="0" height="200" fill="#fff"/></mask><mask id="satori_om-id-0-1"><rect x="300" y="76" width="0" height="200" fill="#fff"/></mask><mask id="satori_om-id-0-2"><rect x="300" y="76" width="0" height="200" fill="#fff"/></mask><mask id="satori_om-id-1"><rect x="74" y="276" width="652" height="48" fill="#fff"/></mask><path fill="black" d="M98.2 292.7L92.3 292.7Q92.1 291.0 90.8 290.0Q89.6 289.1 87.3 289.1L87.3 289.1Q85.8 289.1 84.8 289.5Q83.8 289.9 83.2 290.7Q82.7 291.4 82.7 292.3L82.7 292.3Q82.6 293.1 83.0 293.7Q83.4 294.3 84 294.7Q84.6 295.1 85.5 295.4Q86.3 295.7 87.3 296.0L87.3 296.0L89.9 296.6Q91.8 297.0 93.4 297.7Q95.0 298.4 96.1 299.5Q97.3 300.5 97.9 301.9Q98.6 303.3 98.6 305.1L98.6 305.1Q98.6 307.8 97.2 309.8Q95.9 311.7 93.4 312.8Q90.9 313.9 87.3 313.9L87.3 313.9Q83.8 313.9 81.2 312.8Q78.6 311.7 77.1 309.6Q75.7 307.4 75.6 304.3L75.6 304.3L81.5 304.3Q81.6 305.8 82.4 306.7Q83.1 307.7 84.4 308.2Q85.6 308.7 87.2 308.7L87.2 308.7Q88.8 308.7 90.0 308.2Q91.1 307.8 91.8 307.0Q92.4 306.2 92.4 305.1L92.4 305.1Q92.4 304.1 91.8 303.5Q91.2 302.8 90.1 302.3Q89.0 301.9 87.5 301.5L87.5 301.5L84.3 300.7Q80.6 299.8 78.5 297.9Q76.3 296.0 76.4 292.8L76.4 292.8Q76.3 290.1 77.8 288.1Q79.2 286.2 81.7 285.1Q84.2 284.0 87.4 284.0L87.4 284.0Q90.6 284.0 93.0 285.1Q95.5 286.2 96.8 288.1Q98.2 290.1 98.2 292.7L98.2 292.7ZM108.7 313.4L102.6 313.4L102.6 291.6L108.7 291.6L108.7 313.4ZM105.6 288.8L105.6 288.8Q104.3 288.8 103.3 287.9Q102.4 287.0 102.4 285.7L102.4 285.7Q102.4 284.5 103.3 283.6Q104.3 282.7 105.6 282.7L105.6 282.7Q107.0 282.7 108.0 283.6Q108.9 284.5 108.9 285.7L108.9 285.7Q108.9 287.0 108.0 287.9Q107.0 288.8 105.6 288.8ZM112.0 291.6L125.1 291.6L125.1 296.2L112.0 296.2L112.0 291.6ZM114.9 307.5L114.9 286.4L121.0 286.4L121.0 306.7Q121.0 307.6 121.2 308.0Q121.5 308.5 122.0 308.7Q122.4 308.9 123.0 308.9L123.0 308.9Q123.5 308.9 123.9 308.8Q124.3 308.7 124.5 308.7L124.5 308.7L125.5 313.2Q125.0 313.3 124.2 313.5Q123.4 313.7 122.2 313.7L122.2 313.7Q120.0 313.8 118.4 313.2Q116.7 312.5 115.8 311.1Q114.9 309.7 114.9 307.5L114.9 307.5ZM138.7 313.9L138.7 313.9Q135.4 313.9 133.0 312.5Q130.5 311.1 129.2 308.6Q127.9 306.1 127.9 302.6L127.9 302.6Q127.9 299.3 129.2 296.7Q130.5 294.2 132.9 292.8Q135.3 291.3 138.5 291.3L138.5 291.3Q140.7 291.3 142.5 292.0Q144.4 292.7 145.8 294.1Q147.2 295.5 148.0 297.6Q148.8 299.6 148.8 302.4L148.8 302.4L148.8 304.1L130.3 304.1L130.3 300.3L143.1 300.3Q143.1 299.0 142.5 298.0Q141.9 297.0 140.9 296.4Q139.9 295.9 138.6 295.9L138.6 295.9Q137.2 295.9 136.2 296.5Q135.1 297.1 134.5 298.2Q133.9 299.2 133.9 300.5L133.9 300.5L133.9 304.1Q133.9 305.7 134.5 306.9Q135.1 308.1 136.2 308.7Q137.3 309.3 138.8 309.3L138.8 309.3Q139.9 309.3 140.7 309.1Q141.5 308.8 142.1 308.2Q142.7 307.6 143.0 306.8L143.0 306.8L148.6 307.2Q148.2 309.2 146.9 310.7Q145.6 312.2 143.5 313.0Q141.4 313.9 138.7 313.9ZM170.9 297.8L170.9 297.8L165.3 298.2Q165.2 297.5 164.7 296.9Q164.2 296.3 163.5 296.0Q162.7 295.6 161.7 295.6L161.7 295.6Q160.3 295.6 159.3 296.2Q158.3 296.8 158.3 297.8L158.3 297.8Q158.3 298.6 159.0 299.1Q159.6 299.6 161.1 300.0L161.1 300.0L165.1 300.8Q168.2 301.4 169.8 302.9Q171.4 304.3 171.4 306.7L171.4 306.7Q171.4 308.8 170.1 310.4Q168.8 312.1 166.7 313.0Q164.5 313.9 161.6 313.9L161.6 313.9Q157.3 313.9 154.7 312.1Q152.2 310.2 151.7 307.1L151.7 307.1L157.7 306.8Q158.0 308.1 159 308.8Q160.0 309.5 161.7 309.5L161.7 309.5Q163.2 309.5 164.2 308.9Q165.2 308.3 165.2 307.3L165.2 307.3Q165.2 306.5 164.5 305.9Q163.8 305.4 162.4 305.1L162.4 305.1L158.6 304.4Q155.4 303.7 153.9 302.1Q152.3 300.6 152.3 298.1L152.3 298.1Q152.3 296.0 153.5 294.5Q154.6 293.0 156.7 292.2Q158.8 291.3 161.6 291.3L161.6 291.3Q165.7 291.3 168.1 293.1Q170.5 294.8 170.9 297.8Z M193.7 303.2L183.1 284.3L190.0 284.3L196.6 296.9L196.9 296.9L203.5 284.3L210.4 284.3L199.8 303.2L199.8 313.4L193.7 313.4L193.7 303.2ZM219.0 313.9L219.0 313.9Q215.7 313.9 213.3 312.5Q210.9 311.0 209.6 308.5Q208.2 306.0 208.2 302.6L208.2 302.6Q208.2 299.2 209.6 296.7Q210.9 294.2 213.3 292.8Q215.7 291.3 219.0 291.3L219.0 291.3Q222.3 291.3 224.7 292.8Q227.1 294.2 228.4 296.7Q229.7 299.2 229.7 302.6L229.7 302.6Q229.7 306.0 228.4 308.5Q227.1 311.0 224.7 312.5Q222.3 313.9 219.0 313.9ZM219.0 309.2L219.0 309.2Q220.5 309.2 221.5 308.3Q222.5 307.5 223.1 306.0Q223.6 304.5 223.6 302.6L223.6 302.6Q223.6 300.7 223.1 299.2Q222.5 297.7 221.5 296.8Q220.5 296.0 219.0 296.0L219.0 296.0Q217.5 296.0 216.5 296.8Q215.4 297.7 214.9 299.2Q214.4 300.7 214.4 302.6L214.4 302.6Q214.4 304.5 214.9 306.0Q215.4 307.5 216.5 308.3Q217.5 309.2 219.0 309.2ZM247.7 304.2L247.7 304.2L247.7 291.6L253.7 291.6L253.7 313.4L247.9 313.4L247.9 309.5L247.7 309.5Q246.9 311.4 245.2 312.6Q243.5 313.7 241.1 313.7L241.1 313.7Q238.9 313.7 237.2 312.7Q235.5 311.7 234.6 309.9Q233.7 308.1 233.7 305.5L233.7 305.5L233.7 291.6L239.7 291.6L239.7 304.4Q239.7 306.4 240.8 307.5Q241.8 308.6 243.5 308.6L243.5 308.6Q244.6 308.6 245.5 308.1Q246.5 307.6 247.1 306.6Q247.7 305.6 247.7 304.2Z M285.0 313.4L279.0 313.4L270.7 284.3L277.4 284.3L282.2 304.6L282.5 304.6L287.8 284.3L293.5 284.3L298.8 304.6L299.1 304.6L303.9 284.3L310.6 284.3L302.3 313.4L296.3 313.4L290.8 294.4L290.5 294.4L285.0 313.4ZM319.8 313.4L313.8 313.4L313.8 291.6L319.8 291.6L319.8 313.4ZM316.8 288.8L316.8 288.8Q315.5 288.8 314.5 287.9Q313.6 287.0 313.6 285.7L313.6 285.7Q313.6 284.5 314.5 283.6Q315.5 282.7 316.8 282.7L316.8 282.7Q318.2 282.7 319.1 283.6Q320.1 284.5 320.1 285.7L320.1 285.7Q320.1 287.0 319.1 287.9Q318.2 288.8 316.8 288.8ZM342.8 297.8L342.8 297.8L337.3 298.2Q337.1 297.5 336.7 296.9Q336.2 296.3 335.4 296.0Q334.7 295.6 333.6 295.6L333.6 295.6Q332.2 295.6 331.3 296.2Q330.3 296.8 330.3 297.8L330.3 297.8Q330.3 298.6 330.9 299.1Q331.5 299.6 333.1 300.0L333.1 300.0L337.0 300.8Q340.2 301.4 341.8 302.9Q343.3 304.3 343.3 306.7L343.3 306.7Q343.3 308.8 342.1 310.4Q340.8 312.1 338.6 313.0Q336.4 313.9 333.6 313.9L333.6 313.9Q329.3 313.9 326.7 312.1Q324.1 310.2 323.7 307.1L323.7 307.1L329.7 306.8Q329.9 308.1 331.0 308.8Q332.0 309.5 333.6 309.5L333.6 309.5Q335.2 309.5 336.2 308.9Q337.2 308.3 337.2 307.3L337.2 307.3Q337.2 306.5 336.5 305.9Q335.8 305.4 334.4 305.1L334.4 305.1L330.6 304.4Q327.4 303.7 325.8 302.1Q324.3 300.6 324.3 298.1L324.3 298.1Q324.3 296.0 325.4 294.5Q326.6 293.0 328.7 292.2Q330.7 291.3 333.5 291.3L333.5 291.3Q337.7 291.3 340.0 293.1Q342.4 294.8 342.8 297.8ZM353.2 300.8L353.2 300.8L353.2 313.4L347.1 313.4L347.1 284.3L353.0 284.3L353.0 295.5L353.3 295.5Q354.0 293.5 355.7 292.4Q357.3 291.3 359.8 291.3L359.8 291.3Q362.1 291.3 363.8 292.3Q365.5 293.3 366.4 295.2Q367.4 297.0 367.3 299.5L367.3 299.5L367.3 313.4L361.3 313.4L361.3 300.6Q361.3 298.6 360.3 297.5Q359.2 296.4 357.4 296.4L357.4 296.4Q356.2 296.4 355.2 296.9Q354.3 297.4 353.7 298.4Q353.2 299.4 353.2 300.8Z M390.4 303.2L379.8 284.3L386.7 284.3L393.3 296.9L393.6 296.9L400.2 284.3L407.1 284.3L396.5 303.2L396.5 313.4L390.4 313.4L390.4 303.2ZM415.7 313.9L415.7 313.9Q412.4 313.9 410.0 312.5Q407.6 311.0 406.3 308.5Q405.0 306.0 405.0 302.6L405.0 302.6Q405.0 299.2 406.3 296.7Q407.6 294.2 410.0 292.8Q412.4 291.3 415.7 291.3L415.7 291.3Q419.0 291.3 421.4 292.8Q423.8 294.2 425.1 296.7Q426.4 299.2 426.4 302.6L426.4 302.6Q426.4 306.0 425.1 308.5Q423.8 311.0 421.4 312.5Q419.0 313.9 415.7 313.9ZM415.7 309.2L415.7 309.2Q417.2 309.2 418.2 308.3Q419.2 307.5 419.8 306.0Q420.3 304.5 420.3 302.6L420.3 302.6Q420.3 300.7 419.8 299.2Q419.2 297.7 418.2 296.8Q417.2 296.0 415.7 296.0L415.7 296.0Q414.2 296.0 413.2 296.8Q412.1 297.7 411.6 299.2Q411.1 300.7 411.1 302.6L411.1 302.6Q411.1 304.5 411.6 306.0Q412.1 307.5 413.2 308.3Q414.2 309.2 415.7 309.2ZM444.4 304.2L444.4 304.2L444.4 291.6L450.4 291.6L450.4 313.4L444.6 313.4L444.6 309.5L444.4 309.5Q443.6 311.4 441.9 312.6Q440.2 313.7 437.8 313.7L437.8 313.7Q435.6 313.7 433.9 312.7Q432.3 311.7 431.3 309.9Q430.4 308.1 430.4 305.5L430.4 305.5L430.4 291.6L436.4 291.6L436.4 304.4Q436.4 306.4 437.5 307.5Q438.5 308.6 440.2 308.6L440.2 308.6Q441.3 308.6 442.3 308.1Q443.2 307.6 443.8 306.6Q444.4 305.6 444.4 304.2Z M475.3 313.4L469.2 313.4L469.2 284.3L475.3 284.3L475.3 297.2L475.7 297.2L486.2 284.3L493.5 284.3L482.8 297.4L493.7 313.4L486.3 313.4L478.3 301.5L475.3 305.2L475.3 313.4ZM502.7 300.8L502.7 300.8L502.7 313.4L496.6 313.4L496.6 291.6L502.4 291.6L502.4 295.5L502.7 295.5Q503.4 293.6 505.1 292.5Q506.8 291.3 509.2 291.3L509.2 291.3Q511.5 291.3 513.2 292.3Q514.9 293.3 515.8 295.2Q516.8 297.0 516.8 299.5L516.8 299.5L516.8 313.4L510.7 313.4L510.7 300.6Q510.7 298.6 509.7 297.5Q508.6 296.4 506.8 296.4L506.8 296.4Q505.6 296.4 504.7 296.9Q503.7 297.4 503.2 298.4Q502.7 299.4 502.7 300.8ZM531.5 313.9L531.5 313.9Q528.1 313.9 525.7 312.5Q523.2 311.1 521.9 308.6Q520.6 306.1 520.6 302.6L520.6 302.6Q520.6 299.3 521.9 296.7Q523.2 294.2 525.6 292.8Q528.0 291.3 531.2 291.3L531.2 291.3Q533.4 291.3 535.2 292.0Q537.1 292.7 538.5 294.1Q539.9 295.5 540.7 297.6Q541.5 299.6 541.5 302.4L541.5 302.4L541.5 304.1L523.0 304.1L523.0 300.3L535.8 300.3Q535.8 299.0 535.2 298.0Q534.6 297.0 533.6 296.4Q532.6 295.9 531.3 295.9L531.3 295.9Q529.9 295.9 528.9 296.5Q527.8 297.1 527.2 298.2Q526.6 299.2 526.6 300.5L526.6 300.5L526.6 304.1Q526.6 305.7 527.2 306.9Q527.8 308.1 528.9 308.7Q530.0 309.3 531.6 309.3L531.6 309.3Q532.6 309.3 533.4 309.1Q534.2 308.8 534.8 308.2Q535.4 307.6 535.7 306.8L535.7 306.8L541.3 307.2Q540.9 309.2 539.6 310.7Q538.3 312.2 536.2 313.0Q534.2 313.9 531.5 313.9ZM555.9 313.4L549.6 313.4L543.6 291.6L549.7 291.6L553.1 306.3L553.3 306.3L556.8 291.6L562.8 291.6L566.4 306.2L566.6 306.2L569.9 291.6L576.0 291.6L570.1 313.4L563.7 313.4L560.0 299.7L559.7 299.7L555.9 313.4Z M608.5 313.4L588.8 313.4L588.8 284.3L608.4 284.3L608.4 289.4L595.0 289.4L595.0 296.4L607.4 296.4L607.4 301.4L595.0 301.4L595.0 308.4L608.5 308.4L608.5 313.4ZM619.4 313.9L619.4 313.9Q617.3 313.9 615.7 313.1Q614.1 312.4 613.1 310.9Q612.2 309.5 612.2 307.3L612.2 307.3Q612.2 305.5 612.8 304.3Q613.5 303.1 614.7 302.3Q615.8 301.6 617.3 301.2Q618.8 300.8 620.4 300.6L620.4 300.6Q622.3 300.4 623.4 300.3Q624.6 300.1 625.1 299.7Q625.7 299.4 625.7 298.7L625.7 298.7L625.7 298.6Q625.7 297.2 624.8 296.5Q624.0 295.8 622.4 295.8L622.4 295.8Q620.8 295.8 619.8 296.5Q618.9 297.2 618.5 298.3L618.5 298.3L612.9 297.8Q613.4 295.8 614.6 294.4Q615.9 292.9 617.9 292.1Q619.8 291.3 622.5 291.3L622.5 291.3Q624.3 291.3 625.9 291.8Q627.6 292.2 628.9 293.1Q630.2 294.0 631.0 295.4Q631.7 296.8 631.7 298.7L631.7 298.7L631.7 313.4L626.0 313.4L626.0 310.4L625.8 310.4Q625.3 311.4 624.4 312.2Q623.5 313.0 622.3 313.4Q621.0 313.9 619.4 313.9ZM621.2 309.7L621.2 309.7Q622.5 309.7 623.5 309.1Q624.5 308.6 625.1 307.7Q625.7 306.8 625.7 305.6L625.7 305.6L625.7 303.3Q625.4 303.5 624.9 303.7Q624.4 303.8 623.8 303.9Q623.2 304.1 622.6 304.1Q622.0 304.2 621.5 304.3L621.5 304.3Q620.4 304.5 619.6 304.8Q618.8 305.1 618.4 305.7Q618.0 306.3 618.0 307.1L618.0 307.1Q618.0 308.4 618.9 309.0Q619.8 309.7 621.2 309.7ZM642.5 313.4L636.4 313.4L636.4 291.6L642.3 291.6L642.3 295.4L642.5 295.4Q643.1 293.4 644.5 292.4Q645.9 291.3 647.8 291.3L647.8 291.3Q648.2 291.3 648.7 291.4Q649.3 291.4 649.7 291.5L649.7 291.5L649.7 296.9Q649.2 296.8 648.5 296.7Q647.7 296.6 647.1 296.6L647.1 296.6Q645.8 296.6 644.7 297.1Q643.7 297.7 643.1 298.7Q642.5 299.8 642.5 301.1L642.5 301.1L642.5 313.4ZM652.8 284.3L658.8 284.3L658.8 313.4L652.8 313.4L652.8 284.3ZM669.7 313.4L663.6 313.4L663.6 291.6L669.7 291.6L669.7 313.4ZM666.7 288.8L666.7 288.8Q665.3 288.8 664.4 287.9Q663.4 287.0 663.4 285.7L663.4 285.7Q663.4 284.5 664.4 283.6Q665.3 282.7 666.7 282.7L666.7 282.7Q668.0 282.7 669.0 283.6Q670.0 284.5 670.0 285.7L670.0 285.7Q670.0 287.0 669.0 287.9Q668.0 288.8 666.7 288.8ZM684.5 313.9L684.5 313.9Q681.1 313.9 678.7 312.5Q676.3 311.1 675.0 308.6Q673.6 306.1 673.6 302.6L673.6 302.6Q673.6 299.3 675.0 296.7Q676.3 294.2 678.6 292.8Q681.0 291.3 684.2 291.3L684.2 291.3Q686.4 291.3 688.3 292.0Q690.1 292.7 691.5 294.1Q692.9 295.5 693.7 297.6Q694.5 299.6 694.5 302.4L694.5 302.4L694.5 304.1L676.1 304.1L676.1 300.3L688.8 300.3Q688.8 299.0 688.2 298.0Q687.7 297.0 686.6 296.4Q685.6 295.9 684.3 295.9L684.3 295.9Q682.9 295.9 681.9 296.5Q680.8 297.1 680.2 298.2Q679.6 299.2 679.6 300.5L679.6 300.5L679.6 304.1Q679.6 305.7 680.2 306.9Q680.8 308.1 681.9 308.7Q683.0 309.3 684.6 309.3L684.6 309.3Q685.6 309.3 686.4 309.1Q687.3 308.8 687.8 308.2Q688.4 307.6 688.8 306.8L688.8 306.8L694.4 307.2Q693.9 309.2 692.6 310.7Q691.3 312.2 689.2 313.0Q687.2 313.9 684.5 313.9ZM704.5 313.4L698.4 313.4L698.4 291.6L704.3 291.6L704.3 295.4L704.5 295.4Q705.1 293.4 706.5 292.4Q707.9 291.3 709.8 291.3L709.8 291.3Q710.2 291.3 710.7 291.4Q711.3 291.4 711.7 291.5L711.7 291.5L711.7 296.9Q711.2 296.8 710.5 296.7Q709.7 296.6 709.1 296.6L709.1 296.6Q707.8 296.6 706.7 297.1Q705.7 297.7 705.1 298.7Q704.5 299.8 704.5 301.1L704.5 301.1L704.5 313.4ZM715.7 284.3L722.0 284.3L721.5 304.7L716.3 304.7L715.7 284.3ZM718.9 313.8L718.9 313.8Q717.5 313.8 716.4 312.8Q715.4 311.8 715.4 310.4L715.4 310.4Q715.4 309.0 716.4 308.0Q717.5 307.0 718.9 307.0L718.9 307.0Q720.2 307.0 721.2 308.0Q722.3 309.0 722.3 310.4L722.3 310.4Q722.3 311.3 721.8 312.1Q721.3 312.9 720.5 313.3Q719.8 313.8 718.9 313.8Z "/></svg>