<svg width="800" height="400" viewBox="0 0 800 400" xmlns="http://www.w3.org/2000/svg"><defs><pattern id="satori_pattern_id_0" x="0" y="0" width="1" height="1" patternUnits="objectBoundingBox"><linearGradient id="satori_biid_0" x1="0" y1="0" x2="0" y2="1"><stop offset="0%" stop-color="#dbf4ff"/><stop offset="100%" stop-color="#fff1f1"/></linearGradient><rect x="0" y="0" width="800" height="400" fill="url(#satori_biid_0)"/></pattern></defs><rect x="0" y="0" width="800" height="400" fill="url(#satori_pattern_id_0)"/><clipPath id="satori_bct-id-0"><path d="M228.3 152.1L219.5 152.1Q219.2 149.5 217.3 148.1Q215.3 146.6 212.0 146.6L212.0 146.6Q209.7 146.6 208.2 147.3Q206.6 147.9 205.8 149.0Q205.0 150.1 205.0 151.5L205.0 151.5Q205.0 152.7 205.5 153.6Q206.0 154.4 207 155.1Q208.0 155.7 209.2 156.2Q210.5 156.6 211.9 156.9L211.9 156.9L215.8 157.9Q218.7 158.5 221.1 159.6Q223.4 160.6 225.2 162.2Q226.9 163.7 227.9 165.9Q228.9 168.0 228.9 170.7L228.9 170.7Q228.9 174.7 226.9 177.6Q224.9 180.6 221.1 182.2Q217.3 183.8 212.0 183.8L212.0 183.8Q206.7 183.8 202.8 182.2Q198.9 180.5 196.7 177.4Q194.5 174.2 194.4 169.5L194.4 169.5L203.3 169.5Q203.5 171.7 204.6 173.1Q205.7 174.6 207.6 175.3Q209.5 176.0 211.9 176.0L211.9 176.0Q214.2 176.0 215.9 175.4Q217.7 174.7 218.6 173.5Q219.6 172.3 219.6 170.7L219.6 170.7Q219.6 169.2 218.7 168.2Q217.9 167.2 216.2 166.5Q214.6 165.8 212.2 165.2L212.2 165.2L207.4 164.0Q201.9 162.7 198.7 159.8Q195.5 157.0 195.5 152.1L195.5 152.1Q195.5 148.2 197.7 145.2Q199.8 142.3 203.5 140.6Q207.3 138.9 212.1 138.9L212.1 138.9Q216.9 138.9 220.6 140.6Q224.2 142.3 226.2 145.2Q228.2 148.2 228.3 152.1L228.3 152.1ZM242.0 183.2L232.9 183.2L232.9 150.4L242.0 150.4L242.0 183.2ZM237.5 146.2L237.5 146.2Q235.4 146.2 234.0 144.9Q232.6 143.5 232.6 141.6L232.6 141.6Q232.6 139.7 234.0 138.4Q235.4 137.0 237.5 137.0L237.5 137.0Q239.5 137.0 240.9 138.4Q242.4 139.7 242.4 141.6L242.4 141.6Q242.4 143.5 240.9 144.9Q239.5 146.2 237.5 146.2ZM244.9 150.4L264.6 150.4L264.6 157.3L244.9 157.3L244.9 150.4ZM249.4 174.3L249.4 142.6L258.5 142.6L258.5 173.1Q258.5 174.4 258.9 175.1Q259.3 175.7 259.9 176.0Q260.6 176.3 261.6 176.3L261.6 176.3Q262.2 176.3 262.8 176.2Q263.5 176.1 263.8 176.0L263.8 176.0L265.2 182.8Q264.6 183.0 263.3 183.3Q262.1 183.5 260.3 183.6L260.3 183.6Q257.0 183.7 254.6 182.7Q252.1 181.7 250.7 179.6Q249.4 177.5 249.4 174.3L249.4 174.3ZM283.1 183.8L283.1 183.8Q278.1 183.8 274.4 181.7Q270.8 179.7 268.8 175.9Q266.9 172.1 266.9 166.9L266.9 166.9Q266.9 161.9 268.8 158.1Q270.8 154.3 274.4 152.1Q277.9 150.0 282.8 150.0L282.8 150.0Q286.0 150.0 288.8 151.0Q291.6 152.1 293.7 154.1Q295.8 156.2 297.0 159.3Q298.1 162.5 298.1 166.6L298.1 166.6L298.1 169.1L270.5 169.1L270.5 163.5L289.6 163.5Q289.6 161.5 288.7 160.0Q287.9 158.5 286.4 157.6Q284.9 156.8 282.9 156.8L282.9 156.8Q280.8 156.8 279.2 157.7Q277.7 158.7 276.8 160.3Q275.9 161.9 275.9 163.8L275.9 163.8L275.9 169.1Q275.9 171.6 276.8 173.3Q277.7 175.1 279.3 176.1Q281.0 177.0 283.3 177.0L283.3 177.0Q284.8 177.0 286.0 176.6Q287.3 176.2 288.2 175.3Q289.1 174.5 289.6 173.2L289.6 173.2L297.9 173.8Q297.3 176.8 295.3 179.1Q293.4 181.3 290.3 182.6Q287.2 183.8 283.1 183.8ZM329.3 159.8L329.3 159.8L321.0 160.3Q320.8 159.2 320.1 158.3Q319.4 157.5 318.2 157.0Q317.1 156.4 315.5 156.4L315.5 156.4Q313.4 156.4 311.9 157.3Q310.5 158.2 310.5 159.7L310.5 159.7Q310.5 160.9 311.4 161.7Q312.4 162.5 314.7 163.0L314.7 163.0L320.6 164.2Q325.3 165.1 327.7 167.3Q330.0 169.5 330.0 173.0L330.0 173.0Q330.0 176.2 328.2 178.7Q326.3 181.1 323.0 182.4Q319.7 183.8 315.5 183.8L315.5 183.8Q309.0 183.8 305.1 181.1Q301.3 178.4 300.6 173.7L300.6 173.7L309.5 173.2Q309.9 175.2 311.5 176.2Q313.1 177.3 315.5 177.3L315.5 177.3Q317.9 177.3 319.3 176.3Q320.8 175.4 320.8 173.9L320.8 173.9Q320.8 172.7 319.8 171.9Q318.7 171.1 316.6 170.7L316.6 170.7L310.9 169.5Q306.2 168.6 303.8 166.2Q301.5 163.9 301.5 160.2L301.5 160.2Q301.5 157.0 303.2 154.8Q304.9 152.5 308.0 151.2Q311.2 150.0 315.4 150.0L315.4 150.0Q321.6 150.0 325.1 152.6Q328.7 155.2 329.3 159.8ZM359.2 167.7L343.3 139.5L353.6 139.5L363.6 158.3L364.0 158.3L374.0 139.5L384.3 139.5L368.4 167.7L368.4 183.2L359.2 183.2L359.2 167.7ZM395.1 183.8L395.1 183.8Q390.2 183.8 386.6 181.7Q383.0 179.6 381.0 175.8Q379.0 172.0 379.0 166.9L379.0 166.9Q379.0 161.9 381.0 158.1Q383.0 154.2 386.6 152.1Q390.2 150.0 395.1 150.0L395.1 150.0Q400.1 150.0 403.7 152.1Q407.3 154.2 409.3 158.1Q411.2 161.9 411.2 166.9L411.2 166.9Q411.2 172.0 409.3 175.8Q407.3 179.6 403.7 181.7Q400.1 183.8 395.1 183.8ZM395.2 176.8L395.2 176.8Q397.4 176.8 399.0 175.5Q400.5 174.2 401.2 172.0Q402.0 169.7 402.0 166.9L402.0 166.9Q402.0 164.0 401.2 161.8Q400.5 159.5 399.0 158.2Q397.4 156.9 395.2 156.9L395.2 156.9Q392.9 156.9 391.4 158.2Q389.8 159.5 389.0 161.8Q388.3 164.0 388.3 166.9L388.3 166.9Q388.3 169.7 389.0 172.0Q389.8 174.2 391.4 175.5Q392.9 176.8 395.2 176.8ZM436.2 169.2L436.2 169.2L436.2 150.4L445.2 150.4L445.2 183.2L436.5 183.2L436.5 177.2L436.2 177.2Q435.1 180.1 432.5 181.8Q429.9 183.6 426.2 183.6L426.2 183.6Q423.0 183.6 420.5 182.1Q418.0 180.6 416.6 177.9Q415.2 175.1 415.2 171.3L415.2 171.3L415.2 150.4L424.2 150.4L424.2 169.7Q424.3 172.5 425.8 174.2Q427.3 175.9 429.9 175.9L429.9 175.9Q431.6 175.9 433.0 175.2Q434.4 174.4 435.3 172.9Q436.2 171.4 436.2 169.2ZM481.4 183.2L472.4 183.2L459.9 139.5L470.0 139.5L477.2 169.8L477.6 169.8L485.5 139.5L494.2 139.5L502.1 169.9L502.5 169.9L509.7 139.5L519.8 139.5L507.3 183.2L498.3 183.2L490.0 154.6L489.7 154.6L481.4 183.2ZM531.6 183.2L522.5 183.2L522.5 150.4L531.6 150.4L531.6 183.2ZM527.1 146.2L527.1 146.2Q525.1 146.2 523.6 144.9Q522.2 143.5 522.2 141.6L522.2 141.6Q522.2 139.7 523.6 138.4Q525.1 137.0 527.1 137.0L527.1 137.0Q529.1 137.0 530.6 138.4Q532.0 139.7 532.0 141.6L532.0 141.6Q532.0 143.5 530.6 144.9Q529.1 146.2 527.1 146.2ZM564.1 159.8L564.1 159.8L555.8 160.3Q555.6 159.2 554.9 158.3Q554.2 157.5 553.0 157.0Q551.9 156.4 550.3 156.4L550.3 156.4Q548.2 156.4 546.8 157.3Q545.3 158.2 545.3 159.7L545.3 159.7Q545.3 160.9 546.2 161.7Q547.2 162.5 549.5 163.0L549.5 163.0L555.4 164.2Q560.2 165.1 562.5 167.3Q564.8 169.5 564.8 173.0L564.8 173.0Q564.8 176.2 563.0 178.7Q561.1 181.1 557.8 182.4Q554.5 183.8 550.3 183.8L550.3 183.8Q543.8 183.8 539.9 181.1Q536.1 178.4 535.4 173.7L535.4 173.7L544.3 173.2Q544.7 175.2 546.3 176.2Q547.9 177.3 550.3 177.3L550.3 177.3Q552.7 177.3 554.1 176.3Q555.6 175.4 555.6 173.9L555.6 173.9Q555.6 172.7 554.6 171.9Q553.5 171.1 551.4 170.7L551.4 170.7L545.7 169.5Q541.0 168.6 538.6 166.2Q536.3 163.9 536.3 160.2L536.3 160.2Q536.3 157.0 538.0 154.8Q539.7 152.5 542.8 151.2Q546.0 150.0 550.2 150.0L550.2 150.0Q556.4 150.0 559.9 152.6Q563.5 155.2 564.1 159.8ZM577.6 164.2L577.6 164.2L577.6 183.2L568.6 183.2L568.6 139.5L577.4 139.5L577.4 156.2L577.8 156.2Q578.9 153.3 581.4 151.7Q583.8 150.0 587.6 150.0L587.6 150.0Q591.0 150.0 593.5 151.5Q596.1 153.0 597.5 155.7Q598.9 158.5 598.9 162.3L598.9 162.3L598.9 183.2L589.8 183.2L589.8 163.9Q589.8 160.9 588.3 159.2Q586.7 157.5 584.0 157.5L584.0 157.5Q582.1 157.5 580.7 158.3Q579.3 159.1 578.5 160.6Q577.7 162.1 577.6 164.2Z "/></clipPath><defs><pattern id="satori_pattern_id-0_0" x="0" y="0" width="1" height="1" patternUnits="objectBoundingBox"><linearGradient id="satori_biid-0_0" x1="0" y1="0" x2="1" y2="0"><stop offset="0%" stop-color="rgb(0,124,240)"/><stop offset="100%" stop-color="rgb(0,223,216)"/></linearGradient><rect x="0" y="0" width="416" height="73" fill="url(#satori_biid-0_0)"/></pattern></defs><rect x="192" y="127" width="416" height="73" fill="url(#satori_pattern_id-0_0)" clip-path="url(#satori_bct-id-0)"/><clipPath id="satori_bct-id-1"><path d="M174.2 240.7L158.2 212.5L168.6 212.5L178.5 231.3L178.9 231.3L188.9 212.5L199.2 212.5L183.3 240.7L183.3 256.2L174.2 256.2L174.2 240.7ZM210.1 256.8L210.1 256.8Q205.1 256.8 201.5 254.7Q197.9 252.6 195.9 248.8Q194.0 245.0 194.0 239.9L194.0 239.9Q194.0 234.9 195.9 231.1Q197.9 227.2 201.5 225.1Q205.1 223.0 210.1 223.0L210.1 223.0Q215.0 223.0 218.7 225.1Q222.3 227.2 224.2 231.1Q226.2 234.9 226.2 239.9L226.2 239.9Q226.2 245.0 224.2 248.8Q222.3 252.6 218.7 254.7Q215.0 256.8 210.1 256.8ZM210.1 249.8L210.1 249.8Q212.4 249.8 213.9 248.5Q215.4 247.2 216.2 245.0Q217.0 242.7 217.0 239.9L217.0 239.9Q217.0 237.0 216.2 234.8Q215.4 232.5 213.9 231.2Q212.4 229.9 210.1 229.9L210.1 229.9Q207.8 229.9 206.3 231.2Q204.8 232.5 204.0 234.8Q203.2 237.0 203.2 239.9L203.2 239.9Q203.2 242.7 204.0 245.0Q204.8 247.2 206.3 248.5Q207.8 249.8 210.1 249.8ZM251.1 242.2L251.1 242.2L251.1 223.4L260.2 223.4L260.2 256.2L251.5 256.2L251.5 250.2L251.1 250.2Q250.0 253.1 247.4 254.8Q244.9 256.6 241.2 256.6L241.2 256.6Q237.9 256.6 235.4 255.1Q232.9 253.6 231.5 250.9Q230.1 248.1 230.1 244.3L230.1 244.3L230.1 223.4L239.2 223.4L239.2 242.7Q239.2 245.5 240.7 247.2Q242.3 248.9 244.9 248.9L244.9 248.9Q246.5 248.9 247.9 248.2Q249.3 247.4 250.2 245.9Q251.1 244.4 251.1 242.2ZM286.7 256.2L277.5 256.2L277.5 212.5L286.7 212.5L286.7 231.8L287.3 231.8L303.0 212.5L314.1 212.5L297.9 232.1L314.3 256.2L303.2 256.2L291.3 238.2L286.7 243.8L286.7 256.2ZM325.8 237.2L325.8 237.2L325.8 256.2L316.7 256.2L316.7 223.4L325.4 223.4L325.4 229.2L325.7 229.2Q326.8 226.4 329.4 224.7Q331.9 223.0 335.6 223.0L335.6 223.0Q339.0 223.0 341.5 224.5Q344.1 226.0 345.5 228.7Q346.9 231.5 346.9 235.3L346.9 235.3L346.9 256.2L337.8 256.2L337.8 236.9Q337.8 233.9 336.3 232.2Q334.7 230.5 332.0 230.5L332.0 230.5Q330.2 230.5 328.8 231.3Q327.4 232.1 326.6 233.6Q325.8 235.1 325.8 237.2ZM366.8 256.8L366.8 256.8Q361.8 256.8 358.2 254.7Q354.6 252.6 352.7 248.8Q350.7 245.0 350.7 239.9L350.7 239.9Q350.7 234.9 352.7 231.1Q354.6 227.2 358.2 225.1Q361.8 223.0 366.8 223.0L366.8 223.0Q371.8 223.0 375.4 225.1Q379.0 227.2 381.0 231.1Q382.9 234.9 382.9 239.9L382.9 239.9Q382.9 245.0 381.0 248.8Q379.0 252.6 375.4 254.7Q371.8 256.8 366.8 256.8ZM366.8 249.8L366.8 249.8Q369.1 249.8 370.6 248.5Q372.1 247.2 372.9 245.0Q373.7 242.7 373.7 239.9L373.7 239.9Q373.7 237.0 372.9 234.8Q372.1 232.5 370.6 231.2Q369.1 229.9 366.8 229.9L366.8 229.9Q364.6 229.9 363.0 231.2Q361.5 232.5 360.7 234.8Q359.9 237.0 359.9 239.9L359.9 239.9Q359.9 242.7 360.7 245.0Q361.5 247.2 363.0 248.5Q364.6 249.8 366.8 249.8ZM402.1 256.2L392.5 256.2L383.6 223.4L392.8 223.4L397.8 245.4L398.1 245.4L403.4 223.4L412.4 223.4L417.8 245.3L418.1 245.3L423.1 223.4L432.2 223.4L423.3 256.2L413.7 256.2L408.1 235.6L407.7 235.6L402.1 256.2ZM476.6 256.2L447.1 256.2L447.1 212.5L476.5 212.5L476.5 220.1L456.3 220.1L456.3 230.5L475.0 230.5L475.0 238.1L456.3 238.1L456.3 248.6L476.6 248.6L476.6 256.2ZM491.0 256.8L491.0 256.8Q487.9 256.8 485.5 255.7Q483.0 254.6 481.6 252.4Q480.2 250.3 480.2 247.0L480.2 247.0Q480.2 244.3 481.2 242.4Q482.2 240.6 483.9 239.5Q485.6 238.3 487.8 237.8Q490.0 237.2 492.5 236.9L492.5 236.9Q495.3 236.6 497.1 236.4Q498.8 236.1 499.6 235.6Q500.4 235.0 500.4 234.0L500.4 234.0L500.4 233.9Q500.4 231.8 499.1 230.7Q497.9 229.6 495.5 229.6L495.5 229.6Q493.1 229.6 491.6 230.7Q490.2 231.8 489.7 233.4L489.7 233.4L481.3 232.7Q482.0 229.7 483.8 227.6Q485.7 225.4 488.7 224.2Q491.7 223.0 495.6 223.0L495.6 223.0Q498.3 223.0 500.8 223.6Q503.3 224.3 505.3 225.6Q507.2 227.0 508.3 229.1Q509.5 231.2 509.5 234.1L509.5 234.1L509.5 256.2L500.9 256.2L500.9 251.6L500.6 251.6Q499.8 253.2 498.5 254.3Q497.2 255.5 495.3 256.1Q493.5 256.8 491.0 256.8ZM493.6 250.5L493.6 250.5Q495.6 250.5 497.2 249.7Q498.7 248.9 499.6 247.6Q500.5 246.2 500.5 244.5L500.5 244.5L500.5 241.0Q500.0 241.3 499.3 241.5Q498.6 241.7 497.6 241.9Q496.7 242.1 495.8 242.2Q494.9 242.4 494.1 242.5L494.1 242.5Q492.5 242.7 491.4 243.2Q490.2 243.7 489.5 244.6Q488.8 245.4 488.8 246.7L488.8 246.7Q488.8 248.6 490.2 249.5Q491.5 250.5 493.6 250.5ZM523.6 256.2L514.5 256.2L514.5 223.4L523.3 223.4L523.3 229.1L523.7 229.1Q524.6 226.1 526.7 224.5Q528.8 223.0 531.5 223.0L531.5 223.0Q532.2 223.0 533.0 223.0Q533.8 223.1 534.4 223.3L534.4 223.3L534.4 231.3Q533.7 231.1 532.6 231.0Q531.5 230.8 530.5 230.8L530.5 230.8Q528.5 230.8 527.0 231.7Q525.4 232.6 524.5 234.1Q523.6 235.6 523.6 237.6L523.6 237.6L523.6 256.2ZM537.0 212.5L546.1 212.5L546.1 256.2L537.0 256.2L537.0 212.5ZM560.4 256.2L551.4 256.2L551.4 223.4L560.4 223.4L560.4 256.2ZM555.9 219.2L555.9 219.2Q553.9 219.2 552.5 217.9Q551.0 216.5 551.0 214.6L551.0 214.6Q551.0 212.7 552.5 211.4Q553.9 210.0 555.9 210.0L555.9 210.0Q557.9 210.0 559.4 211.4Q560.8 212.7 560.8 214.6L560.8 214.6Q560.8 216.5 559.4 217.9Q557.9 219.2 555.9 219.2ZM580.6 256.8L580.6 256.8Q575.5 256.8 571.9 254.7Q568.3 252.7 566.3 248.9Q564.4 245.1 564.4 239.9L564.4 239.9Q564.4 234.9 566.3 231.1Q568.3 227.3 571.9 225.1Q575.4 223.0 580.2 223.0L580.2 223.0Q583.5 223.0 586.3 224.0Q589.1 225.1 591.2 227.1Q593.3 229.2 594.4 232.3Q595.6 235.5 595.6 239.6L595.6 239.6L595.6 242.1L568.0 242.1L568.0 236.5L587.1 236.5Q587.1 234.5 586.2 233.0Q585.4 231.5 583.9 230.6Q582.4 229.8 580.4 229.8L580.4 229.8Q578.3 229.8 576.7 230.7Q575.1 231.7 574.2 233.3Q573.4 234.9 573.3 236.8L573.3 236.8L573.3 242.1Q573.3 244.6 574.2 246.3Q575.1 248.1 576.8 249.1Q578.5 250.0 580.7 250.0L580.7 250.0Q582.3 250.0 583.5 249.6Q584.8 249.2 585.7 248.3Q586.6 247.5 587.0 246.2L587.0 246.2L595.4 246.8Q594.8 249.8 592.8 252.1Q590.8 254.3 587.7 255.6Q584.6 256.8 580.6 256.8ZM608.6 256.2L599.5 256.2L599.5 223.4L608.3 223.4L608.3 229.1L608.7 229.1Q609.6 226.1 611.7 224.5Q613.8 223.0 616.5 223.0L616.5 223.0Q617.2 223.0 618.0 223.0Q618.8 223.1 619.4 223.3L619.4 223.3L619.4 231.3Q618.8 231.1 617.6 231.0Q616.5 230.8 615.6 230.8L615.6 230.8Q613.6 230.8 612.0 231.7Q610.4 232.6 609.5 234.1Q608.6 235.6 608.6 237.6L608.6 237.6L608.6 256.2ZM623.4 212.5L632.9 212.5L632.1 243.1L624.3 243.1L623.4 212.5ZM628.2 256.7L628.2 256.7Q626.1 256.7 624.6 255.2Q623.0 253.7 623.1 251.6L623.1 251.6Q623.0 249.5 624.6 248.0Q626.1 246.5 628.2 246.5L628.2 246.5Q630.2 246.5 631.7 248.0Q633.3 249.5 633.3 251.6L633.3 251.6Q633.3 253.0 632.6 254.2Q631.8 255.3 630.7 256.0Q629.5 256.7 628.2 256.7Z "/></clipPath><defs><pattern id="satori_pattern_id-1_0" x="0" y="0" width="1" height="1" patternUnits="objectBoundingBox"><linearGradient id="satori_biid-1_0" x1="0" y1="0" x2="1" y2="0"><stop offset="0%" stop-color="rgb(121,40,202)"/><stop offset="100%" stop-color="rgb(255,0,128)"/></linearGradient><rect x="0" y="0" width="486" height="73" fill="url(#satori_biid-1_0)"/></pattern></defs><rect x="157" y="200" width="486" height="73" fill="url(#satori_pattern_id-1_0)" clip-path="url(#satori_bct-id-1)"/></svg>